<?xml version="1.0" encoding="UTF-8"?>
<svg width="100px" height="26px" viewBox="0 0 100 26" version="1.1" xmlns="http://www.w3.org/2000/svg" xmlns:xlink="http://www.w3.org/1999/xlink">
    <!-- Generator: sketchtool 51.3 (57544) - http://www.bohemiancoding.com/sketch -->
    <title>792E292A-23B5-4C8A-AA10-66ACD0515909</title>
    <desc>Created with sketchtool.</desc>
    <defs></defs>
    <g id="switch-Dashboard" stroke="none" stroke-width="1" fill="none" fill-rule="evenodd">
        <g id="switch-Dashboard-2-menu1" transform="translate(-60.000000, -16.000000)" fill="#FFFFFF" fill-rule="nonzero">
            <g id="EnGenius-Logo-01" transform="translate(60.000000, 16.000000)">
                <path d="M0.00796897458,7.26078297 L2.69351341,7.26078297 L10.8192112,7.26078297 L10.8192112,9.49535262 L2.69351341,9.49535262 L2.69351341,14.4577685 L10.6146741,14.4577685 L10.6146741,16.6141686 L2.69351341,16.6141686 L2.69351341,23.2504901 L10.8909319,23.2504901 L10.8909319,25.5066237 L0,25.5066237 L0,7.24730546 L0.00796897458,7.26078297 Z M19.3088254,13.8162394 C21.8828042,13.8162394 23.917549,15.0076505 23.8962984,18.3985897 L23.8962984,18.5225827 L23.8962984,25.5551427 L21.3993531,25.5551427 L21.3993531,18.5252782 L21.4259163,18.5252782 C21.4949808,16.6249506 20.4297945,15.8055185 18.6580258,15.8055185 C15.9645124,15.8055185 15.781226,18.1398217 15.6510661,18.5279737 L15.6510661,25.5578382 L13.164746,25.5578382 L13.164746,14.3068204 L15.6457534,14.3068204 L15.6457534,15.506318 C16.5716203,14.434687 17.9070327,13.8189971 19.3114817,13.8162394 L19.3088254,13.8162394 Z M63.51804,13.7704159 C66.0946752,13.7704159 68.12942,14.961827 68.1081694,18.3527662 C68.1081694,18.3958942 68.1081694,18.4363267 68.1081694,18.4794547 L68.1081694,25.5120147 L65.6059114,25.5120147 L65.6059114,18.4713682 L65.6298183,18.4713682 C65.6988828,16.5845181 64.6336965,15.7516085 62.8645841,15.7516085 C60.1710707,15.7516085 59.9877843,18.0859117 59.8549681,18.4767592 L59.8549681,25.5066237 L57.376617,25.5066237 L57.376617,14.2529104 L59.8549681,14.2529104 L59.8549681,15.4497125 C60.77938,14.3776351 62.1142176,13.7617639 63.51804,13.7596339 L63.51804,13.7704159 Z M35.7435073,15.8648195 L40.9206845,15.8648195 C40.919366,15.8522761 40.919366,15.839626 40.9206845,15.8270825 L43.3113768,15.8270825 L43.3113768,15.856733 C43.1068398,22.3043695 39.2100113,25.5955752 34.2586217,25.5982707 C29.3072322,25.6009662 25.2696184,21.3366849 25.2669621,16.1101101 C25.2643057,10.8835352 29.0230054,6.75941993 34.2506527,6.61655842 C37.5949657,6.52491142 40.450515,7.69475849 42.0230593,10.2393107 L40.3150424,11.7110538 C39.2525124,9.64090963 36.9601041,8.62740156 34.261278,8.84034607 C30.1917884,9.16111059 27.6204659,12.0587733 27.6204659,15.9995946 C27.6204659,19.9404158 30.606175,23.1507565 34.261278,23.1507565 C37.310739,23.1507565 39.7200256,21.6709269 40.5859875,18.0697387 L35.7435073,18.0697387 L35.7435073,15.8648195 Z M46.8336636,18.2018182 L53.6338552,18.2018182 C53.2114996,16.3365321 52.0613109,15.506318 50.3957952,15.506318 C48.7583852,15.5269988 47.3203098,16.6152046 46.8336636,18.2018182 Z M55.9315762,19.9215473 L55.9315762,19.9673708 L46.6769404,19.9673708 C46.9160097,21.891958 48.4168332,23.4176111 50.3107928,23.4149156 C51.7983348,23.4149156 53.4585378,22.5685285 53.9977717,21.2261694 L56.1520512,22.360975 C55.3790607,24.4338146 52.6111702,25.6198347 50.1168811,25.6198347 C48.5257146,25.6148619 47.0020636,24.9668193 45.8829315,23.8190419 C44.7637995,22.6712645 44.1414127,21.1183393 44.1534318,19.5037448 C44.1534318,16.1748021 46.5441242,13.4200009 50.2151651,13.4900839 C53.8862061,13.5601669 56.3247123,15.705785 56.1414259,19.8892013 C56.1421186,19.8963721 56.1421186,19.9035945 56.1414259,19.9107653 L55.9236073,19.9107653 L55.9315762,19.9215473 Z M71.0062198,14.1909139 L73.6917643,14.1909139 L73.6917643,25.5120147 L71.0141888,25.5120147 L71.0141888,14.1909139 L71.0062198,14.1909139 Z M72.3343823,9.48457062 C73.0570173,9.48462471 73.6436093,10.0775355 73.6464994,10.8108221 C73.6493896,11.5441087 73.0674902,12.1417618 72.3448786,12.1476814 C71.6222671,12.153601 71.0309347,11.5655591 71.0221578,10.8323207 C71.0171728,10.4761537 71.1533067,10.1328663 71.4000168,9.87947702 C71.6467268,9.6260878 71.9833571,9.48381218 72.3343823,9.48457062 Z M87.0690162,20.2503983 C87.2788659,23.9324516 85.1591187,25.5093192 81.7563665,25.5093192 C78.170328,25.5093192 76.7093493,23.6763791 76.4437168,21.1965189 L76.3985593,20.3231769 L76.3985593,14.0696164 L78.9512875,14.0696164 L78.9512875,15.6491795 L78.9751944,20.2692668 L78.9751944,21.2558199 C78.9751944,22.2127225 80.14929,23.4957806 81.8971517,23.4930851 C83.28761,23.5447879 84.4585571,22.4480657 84.5189444,21.0374844 L84.5189444,13.8890179 L87.0716726,13.8890179 L87.0716726,20.2503983 L87.0690162,20.2503983 Z M93.0537162,13.4577379 C94.6475111,13.4577379 96.0234873,14.3122114 96.5813156,15.5197955 L94.4562557,16.5440856 C94.2602674,15.959311 93.7356215,15.5525701 93.1280933,15.5144045 C92.3896349,15.4712765 91.7202411,16.0022901 91.7228974,16.7058156 C91.7228974,17.2691751 92.594172,17.7516697 93.207783,17.9295727 C93.5690432,18.0751297 94.8706424,18.6061432 95.7339479,19.0455098 L95.7206663,19.0455098 C96.854917,19.5846098 97.6013443,20.5657719 97.5136856,21.972823 C97.2321152,24.0995726 95.4789408,25.4985372 93.0643415,25.5012327 C91.0375656,25.5012327 89.3242361,24.3906866 88.8142217,22.8919885 L91.0720978,21.940477 C91.3216694,22.6713674 91.9417643,23.2077687 92.692456,23.3421371 C93.6726398,23.5496906 94.6050099,23.3286596 94.8467354,22.075252 C95.1894013,20.8056714 93.518573,20.7787164 92.5383891,20.0697998 C91.8500717,19.8179414 91.1944665,19.4821365 90.5859904,19.0697693 C89.5579926,18.4929322 89.2870475,17.6708047 89.2870475,16.7112066 C89.3029855,14.929481 90.9658448,13.4604334 93.0563725,13.4577379 L93.0537162,13.4577379 Z" id="Shape"></path>
                <path d="M72.4203612,2.19728869e-14 C75.7031763,0.00800304667 78.8245325,1.38188562 80.9917355,3.77273887 L80.3884171,4.32164145 C78.3584835,2.05777424 75.4105316,0.765801243 72.3167114,0.784125828 C69.2228913,0.802450413 66.291438,2.12924691 64.2901801,4.41699073 L63.6363636,3.94024435 C65.8370856,1.46189155 69.0342634,0.0255581773 72.4070723,0 L72.4203612,2.19728869e-14 Z M72.4203612,5.5199499 C74.0146571,5.52112908 75.4903024,6.33690653 76.3033931,7.66659709 L75.708048,8.16138251 L75.6761546,8.18199857 C75.0193285,7.01117226 73.7479385,6.28918317 72.3734465,6.30647712 C70.9989544,6.32377106 69.7473144,7.07750507 69.1220432,8.26446281 L68.4868313,7.74906133 C69.2853192,6.36952564 70.7888335,5.51453672 72.4203612,5.51221888 L72.4203612,5.5199499 Z M72.4203612,2.778014 C69.9392927,2.78591409 67.607143,3.92705045 66.1267133,5.85753788 L66.7300318,6.33170724 C68.073522,4.59211741 70.1816367,3.5653266 72.423019,3.55884725 C74.609002,3.57352628 76.6578459,4.59407028 77.9432498,6.30851417 L78.5890929,5.77507364 C77.1256099,3.90004699 74.8454728,2.79224927 72.4203612,2.778014 Z" id="Shape"></path>
                <path d="M98.7591698,13.2231427 C99.0884467,13.222526 99.4044149,13.3529354 99.6372492,13.585552 C99.8700835,13.8181685 100.000615,14.1338411 99.9999978,14.4628099 C100.000614,14.7913769 99.8704003,15.1066973 99.638068,15.3392469 C99.4057358,15.5717964 99.0903643,15.7024777 98.7614891,15.7024772 C98.4326146,15.7030925 98.1169989,15.5730008 97.8842316,15.340886 C97.6514643,15.1087711 97.5206606,14.7936946 97.5206612,14.4651271 C97.5219323,13.7819081 98.0753148,13.228008 98.7591698,13.2254598 L98.7591698,13.2231427 Z M98.7591698,13.4316848 C98.1911233,13.4354881 97.7319275,13.8952877 97.7293986,14.4628099 C97.7319386,15.0312301 98.1925367,15.4913974 98.7614891,15.493935 C99.0345492,15.4913767 99.2958333,15.3824716 99.4897508,15.1903903 C99.6832102,14.9966972 99.7916757,14.7341228 99.7912604,14.4604928 C99.789985,13.8915468 99.3286486,13.4306419 98.7591698,13.4293677 L98.7591698,13.4316848 Z" id="Shape"></path>
                <path d="M98.3471074,15.6945743 L98.3471074,14.0503268 L99.1800103,14.0503268 C99.3103465,14.0459351 99.4405626,14.0611187 99.5641787,14.095122 C99.6538066,14.1258865 99.7278499,14.1807436 99.7740186,14.2505877 C99.8271317,14.3258075 99.8539316,14.4114833 99.8514979,14.4982789 C99.8565092,14.6065411 99.8102675,14.7122229 99.7223657,14.7934002 C99.61629,14.8825561 99.4738886,14.9369222 99.3220558,14.9462309 C99.3757072,14.9680594 99.4256312,14.9955207 99.4705579,15.0279163 C99.550803,15.0941378 99.6202466,15.1685321 99.6771694,15.2492573 L100,15.6945743 L99.6771694,15.6945743 L99.4285899,15.3520227 C99.3543388,15.2545273 99.293001,15.178112 99.2478048,15.1254117 C99.2116007,15.0852006 99.1692952,15.0488991 99.1219008,15.0173762 C99.0876939,14.9972242 99.0494637,14.9820678 99.0089101,14.972581 C98.9627519,14.9688297 98.9162512,14.9688297 98.870093,14.972581 L98.5795455,14.972581 L98.5795455,15.7024793 L98.3471074,15.6945743 Z M98.595687,14.7775901 L99.1315857,14.7775901 C99.2225177,14.7804825 99.3133305,14.7697659 99.3995351,14.74597 C99.4604791,14.7270179 99.5117105,14.6917065 99.5448089,14.6458395 C99.6340761,14.538853 99.6149208,14.3947878 99.4996126,14.305923 C99.4118115,14.2516504 99.3027522,14.2254139 99.1929236,14.2321426 L98.595687,14.2321426 L98.595687,14.7775901 Z" id="Shape"></path>
            </g>
        </g>
    </g>
</svg>